<svg id="visual" viewBox="0 0 900 600" width="900" height="600" xmlns="http://www.w3.org/2000/svg" xmlns:xlink="http://www.w3.org/1999/xlink" version="1.1"><rect x="0" y="0" width="900" height="600" fill="#D9D9D9"></rect><g transform="translate(851.9407660437457 -31.97991429007564)"><path d="M359.8 -408.9C470.6 -335.8 567.7 -226.5 599.4 -98.1C631.1 30.4 597.4 177.9 524.6 301.8C451.8 425.6 339.8 525.7 213.4 560.4C87.1 595.1 -53.6 564.4 -165.2 502.6C-276.7 440.8 -359.2 347.9 -422.5 242.1C-485.8 136.3 -530 17.5 -510.6 -89.6C-491.2 -196.8 -408.3 -292.3 -312.6 -368.1C-216.9 -443.9 -108.5 -499.9 8 -509.5C124.5 -519 249 -482 359.8 -408.9" fill="#02528A"></path></g></svg>